<?xml version="1.0" encoding="UTF-8" standalone="no"?>
<svg
   width="1000"
   height="201.44527"
   viewBox="0 0 999.99993 201.44527"
   version="1.1"
   id="svg65"
   sodipodi:docname="miHoYo Anime.svg"
   inkscape:version="1.1.1 (3bf5ae0d25, 2021-09-20)"
   xmlns:inkscape="http://www.inkscape.org/namespaces/inkscape"
   xmlns:sodipodi="http://sodipodi.sourceforge.net/DTD/sodipodi-0.dtd"
   xmlns="http://www.w3.org/2000/svg"
   xmlns:svg="http://www.w3.org/2000/svg"
   xmlns:rdf="http://www.w3.org/1999/02/22-rdf-syntax-ns#"
   xmlns:cc="http://creativecommons.org/ns#"
   xmlns:dc="http://purl.org/dc/elements/1.1/">
  <metadata
     id="metadata71">
    <rdf:RDF>
      <cc:Work
         rdf:about="">
        <dc:format>image/svg+xml</dc:format>
        <dc:type
           rdf:resource="http://purl.org/dc/dcmitype/StillImage" />
        <dc:title />
      </cc:Work>
    </rdf:RDF>
  </metadata>
  <defs
     id="defs69">
    <filter
       inkscape:label="Blur Double"
       inkscape:menu="Blurs"
       inkscape:menu-tooltip="Overlays two copies with different blur amounts and modifiable blend and composite"
       style="color-interpolation-filters:sRGB"
       id="filter1012"
       x="-1.7151795e-05"
       width="1.0000343"
       y="-0.00011956386"
       height="1.0002391">
      <feGaussianBlur
         stdDeviation="0.007318099"
         result="fbSourceGraphic"
         id="feGaussianBlur1004" />
      <feGaussianBlur
         stdDeviation="0.01"
         in="SourceGraphic"
         result="result1"
         id="feGaussianBlur1006" />
      <feComposite
         in2="result1"
         operator="arithmetic"
         in="fbSourceGraphic"
         k2="0.5"
         k3="0.5"
         result="result2"
         id="feComposite1008"
         k1="0"
         k4="0" />
      <feBlend
         in2="fbSourceGraphic"
         mode="normal"
         result="result3"
         id="feBlend1010" />
    </filter>
    <filter
       inkscape:label="Cross Blur"
       inkscape:menu="Blurs"
       inkscape:menu-tooltip="Overlays two copies with different blur amounts and modifiable blend and composite"
       style="color-interpolation-filters:sRGB"
       id="filter1012-3"
       x="-0.027286947"
       width="1.0545739"
       y="-0.19021523"
       height="1.3804305">
      <feGaussianBlur
         stdDeviation="11.64243"
         result="fbSourceGraphic"
         id="feGaussianBlur1004-2" />
      <feGaussianBlur
         stdDeviation="0.01"
         in="SourceGraphic"
         result="result1"
         id="feGaussianBlur1006-0" />
      <feComposite
         in2="result1"
         operator="arithmetic"
         in="fbSourceGraphic"
         k2="0.5"
         k3="0.5"
         result="result2"
         id="feComposite1008-6"
         k1="0"
         k4="0" />
      <feBlend
         in2="fbSourceGraphic"
         mode="normal"
         result="fbSourceGraphic"
         id="feBlend1010-7" />
      <feColorMatrix
         result="fbSourceGraphicAlpha"
         in="fbSourceGraphic"
         values="0 0 0 -1 0 0 0 0 -1 0 0 0 0 -1 0 0 0 0 1 0"
         id="feColorMatrix1461" />
      <feColorMatrix
         id="feColorMatrix1463"
         in="fbSourceGraphic"
         values="1 0 0 0 0 0 1 0 0 0 0 0 1 0 0 -0.2125 -0.7154 -0.0721 1 0 "
         result="colormatrix" />
      <feComposite
         in2="colormatrix"
         id="feComposite1465"
         in="fbSourceGraphic"
         operator="arithmetic"
         k2="1"
         k3="2.06587"
         k4="0"
         result="composite"
         k1="0" />
      <feGaussianBlur
         id="feGaussianBlur1467"
         stdDeviation="7.37159 0.01"
         result="blur1" />
      <feGaussianBlur
         id="feGaussianBlur1469"
         in="composite"
         stdDeviation="0.01 13.8953"
         result="blur2" />
      <feBlend
         in2="blur1"
         id="feBlend1471"
         in="blur2"
         mode="screen"
         result="blend" />
    </filter>
    <filter
       inkscape:label="Blur Double"
       inkscape:menu="Blurs"
       inkscape:menu-tooltip="Overlays two copies with different blur amounts and modifiable blend and composite"
       style="color-interpolation-filters:sRGB"
       id="filter1012-32"
       x="-0.008633689"
       width="1.0172673"
       y="-0.060184859"
       height="1.1203697">
      <feGaussianBlur
         stdDeviation="3.5973705"
         result="fbSourceGraphic"
         id="feGaussianBlur1004-3" />
      <feGaussianBlur
         stdDeviation="0.01"
         in="SourceGraphic"
         result="result1"
         id="feGaussianBlur1006-4" />
      <feComposite
         in2="result1"
         operator="arithmetic"
         in="fbSourceGraphic"
         k2="0.5"
         k3="0.5"
         result="result2"
         id="feComposite1008-3"
         k1="0"
         k4="0" />
      <feBlend
         in2="fbSourceGraphic"
         mode="normal"
         result="fbSourceGraphic"
         id="feBlend1010-78" />
      <feColorMatrix
         result="fbSourceGraphicAlpha"
         in="fbSourceGraphic"
         values="0 0 0 -1 0 0 0 0 -1 0 0 0 0 -1 0 0 0 0 1 0"
         id="feColorMatrix925" />
      <feGaussianBlur
         id="feGaussianBlur927"
         stdDeviation="5"
         result="fbSourceGraphic"
         in="fbSourceGraphic" />
      <feGaussianBlur
         id="feGaussianBlur929"
         stdDeviation="0.01"
         in="fbSourceGraphic"
         result="result1" />
      <feComposite
         in2="result1"
         id="feComposite931"
         operator="arithmetic"
         in="fbSourceGraphic"
         k2="0.5"
         k3="0.5"
         result="result2"
         k1="0"
         k4="0" />
      <feBlend
         in2="fbSourceGraphic"
         id="feBlend933"
         mode="normal"
         result="result3" />
    </filter>
  </defs>
  <sodipodi:namedview
     pagecolor="#ffffff"
     bordercolor="#666666"
     borderopacity="1"
     objecttolerance="10"
     gridtolerance="10"
     guidetolerance="10"
     inkscape:pageopacity="0"
     inkscape:pageshadow="2"
     inkscape:window-width="1366"
     inkscape:window-height="705"
     id="namedview67"
     showgrid="false"
     inkscape:zoom="0.5"
     inkscape:cx="451"
     inkscape:cy="75"
     inkscape:window-x="-8"
     inkscape:window-y="-8"
     inkscape:window-maximized="1"
     inkscape:current-layer="svg65"
     inkscape:document-rotation="0"
     showguides="false"
     inkscape:pagecheckerboard="0">
    <inkscape:grid
       type="xygrid"
       id="grid870"
       originx="-142.38373"
       originy="-54.364596" />
  </sodipodi:namedview>
  <!-- Generated by Pixelmator Pro 2.0.3 -->
  <g
     id="g51644">
    <g
       id="g8353"
       style="display:inline;fill:#f44d85;fill-opacity:1"
       transform="matrix(1.1018368,0,0,1.1018368,-54.070438,-321.50606)">
      <path
         id="rect2637-8"
         style="opacity:1;fill:#f44d85;fill-opacity:1;stroke-width:1.23736"
         d="m 686.96094,292.4375 c -3.88817,0.0156 -6.25768,1.06511 -7.58789,3.78711 l -36.58789,74.87109 c 4.02679,2.23082 7.62733,5.25126 10.66796,8.85938 l 28.00782,-57.3125 v 145.875 c 0,3.37923 2.72033,6.09961 6.09961,6.09961 3.37929,0 6.09961,-2.72038 6.09961,-6.09961 V 298.53906 c 0,-3.37923 -2.81105,-6.11715 -6.69922,-6.10156 z m 84.03515,48.78125 v 21.85937 l 17.68946,-10.93164 z m -38.80078,30.96484 c -14.01564,0 -25.29883,11.28319 -25.29883,25.29883 v 42.5625 c 0,3.26759 2.63085,5.89844 5.89844,5.89844 3.26759,0 5.89844,-2.63085 5.89844,-5.89844 v -42.5625 c 0,-7.48008 6.02187,-13.50195 13.50195,-13.50195 7.48009,0 13.50196,6.02187 13.50196,13.50195 v 42.5625 c 0,3.26759 2.63084,5.89844 5.89843,5.89844 3.26759,0 5.89844,-2.63085 5.89844,-5.89844 v -42.5625 c 0,-14.01564 -11.28318,-25.29883 -25.29883,-25.29883 z m 89.09961,0 c -14.01564,0 -25.29883,11.28319 -25.29883,25.29883 v 30.0625 c 0,3.65727 -2.94429,6.60156 -6.60156,6.60156 -3.65726,0 -6.60156,-2.94429 -6.60156,-6.60156 v -48.46289 c 0,-3.26759 -2.63085,-5.89844 -5.89844,-5.89844 -3.26759,0 -5.89844,2.63085 -5.89844,5.89844 v 48.46289 c 0,10.19277 8.20567,18.39844 18.39844,18.39844 10.19277,0 18.39844,-8.20567 18.39844,-18.39844 v -30.0625 c 0,-7.48008 6.02187,-13.50195 13.50195,-13.50195 7.48009,0 13.50196,6.02187 13.50196,13.50195 v 42.5625 c 0,3.26759 2.63084,5.89844 5.89843,5.89844 3.26759,0 5.89844,-2.63085 5.89844,-5.89844 v -42.5625 c 0,-7.48008 6.02187,-13.50195 13.50195,-13.50195 7.48009,0 13.50196,6.02187 13.50196,13.50195 v 42.5625 c 0,3.26759 2.63084,5.89844 5.89843,5.89844 3.26759,0 5.89844,-2.63085 5.89844,-5.89844 v -42.5625 c 0,-14.01564 -11.28318,-25.29883 -25.29883,-25.29883 -7.8092,0 -14.76681,3.50464 -19.40039,9.03125 -4.63358,-5.52661 -11.59118,-9.03125 -19.40039,-9.03125 z m 105.56836,1 c -17.53437,0 -31.75586,16.29701 -31.75586,36.38477 0,19.94003 13.99909,36.375 31.35156,36.375 h 17.5 c 2.68946,0 4.85547,-2.16601 4.85547,-4.85547 0,-2.68946 -2.16601,-4.85351 -4.85547,-4.85351 h -17.5 c -11.43051,0 -20.69531,-11.9291 -20.69531,-26.64258 -6e-5,-14.681 9.27739,-26.64062 20.69531,-26.64063 10.66057,0 19.45423,10.42752 20.57422,23.75977 h -24.62695 c -2.68946,0 -4.85547,2.166 -4.85547,4.85547 0,2.68944 2.16601,4.85351 4.85547,4.85351 h 29.38672 c 2.68946,0 4.85547,-2.16407 4.85547,-4.85351 v -1.99805 c 0,-20.08776 -12.2508,-36.38477 -29.78516,-36.38477 z m -263.36133,30.5 c 0.20475,1.7805 0.32227,3.58793 0.32227,5.42188 0,3.09457 -0.31007,6.12057 -0.88086,9.04687 h 7.875 c 4.00773,0 7.23437,-3.22657 7.23437,-7.23437 0,-4.00779 -3.22664,-7.23438 -7.23437,-7.23438 z m -56.94531,41.54297 -9.62109,19.68946 c -1.6389,3.35366 -0.25996,7.37279 3.09375,9.01171 3.35371,1.63893 7.37287,0.25993 9.01172,-3.09375 l 9.86914,-20.19531 c -4.46831,-0.9817 -8.63184,-2.83967 -12.35352,-5.41211 z" />
      <path
         id="path1015"
         style="display:inline;fill:#000000;fill-opacity:1;fill-rule:evenodd;stroke-width:0.861179;stroke-linecap:round;paint-order:stroke fill markers"
         d="m 483.1733,366.51475 c -0.53741,0 -0.87331,2.55278 -0.87331,6.04605 0,3.49329 0.67179,6.8522 1.34357,6.8522 0.67177,0 0.67177,-0.40306 3.89635,-3.22455 3.22457,-2.82151 3.76199,-2.82151 3.76199,-3.62765 0,-0.80615 -1.20922,-1.47793 -4.03071,-3.49327 -2.82149,-2.01536 -3.56045,-2.55278 -4.09789,-2.55278 z m 56.56429,0 c -0.53744,0 -1.2764,0.53742 -4.09789,2.55278 -2.8215,2.01534 -4.0307,2.68712 -4.0307,3.49327 0,0.80614 0.53741,0.80614 3.76199,3.62765 3.22456,2.82149 3.22456,3.22455 3.89634,3.22455 0.6718,0 1.34359,-3.35891 1.34359,-6.8522 0,-3.49327 -0.3359,-6.04605 -0.87333,-6.04605 z m -28.28251,5.64345 c -17.80551,0 -32.2461,16.54889 -32.2461,36.94727 0,20.40592 14.4373,36.94922 32.2461,36.94922 17.80879,0 32.24609,-16.5433 32.24609,-36.94922 0,-20.39838 -14.44059,-36.94727 -32.24609,-36.94727 z m 0,18.40625 c 8.89459,0 16.12309,8.32356 16.12304,18.54102 0,10.24006 -7.21862,18.54101 -16.12304,18.54101 -8.90441,0 -16.12305,-8.30095 -16.12305,-18.54101 -4e-5,-10.21746 7.22845,-18.54102 16.12305,-18.54102 z M 626.19727,372.1582 c -17.80551,0 -32.2461,16.54889 -32.2461,36.94727 0,20.40592 14.4373,36.94922 32.2461,36.94922 17.80879,0 32.24609,-16.5433 32.24609,-36.94922 0,-20.39838 -14.44059,-36.94727 -32.24609,-36.94727 z m 0,18.40625 c 8.89459,0 16.12309,8.32356 16.12304,18.54102 0,10.24006 -7.21862,18.54101 -16.12304,18.54101 -8.90441,0 -16.12305,-8.30095 -16.12305,-18.54101 -4e-5,-10.21746 7.22845,-18.54102 16.12305,-18.54102 z M 545.3134,346.76428 c -3.09021,0 -6.11137,3.89634 -3.34528,7.73419 l 19.1994,34.72259 v 46.95778 c 0,5.39643 4.34575,9.74088 9.7422,9.74088 5.39644,0 9.74217,-4.34445 9.74217,-9.74088 v -46.95778 l 19.19942,-34.72259 c 2.7661,-3.83785 -0.25769,-7.73419 -3.34529,-7.73419 h -9.97389 c -1.34256,0 -2.9548,0.89074 -3.59877,2.06877 l -10.69397,19.5627 c -0.27114,0.49597 -0.74474,0.67178 -1.26381,0.67178 -0.51907,0 -1.03013,-0.17686 -1.30316,-0.67178 l -10.79159,-19.5627 c -0.64848,-1.17554 -2.25097,-2.06877 -3.59352,-2.06877 z m -128.10936,0 c -5.39645,0 -9.74087,4.34442 -9.74087,9.74088 v 79.67368 c 0,5.39643 4.34442,9.74088 9.74087,9.74088 5.39644,0 9.74087,-4.34445 9.74087,-9.74088 v -26.13243 c 0,-2.45633 1.97747,-4.43379 4.43379,-4.43379 h 10.47984 c 2.45631,0 4.43378,1.97746 4.43378,4.43379 v 26.13243 c 0,5.39643 4.34443,9.74088 9.74088,9.74088 5.39645,0 9.74087,-4.34445 9.74087,-9.74088 v -79.67368 c 0,-5.39646 -4.34442,-9.74088 -9.74087,-9.74088 -5.39645,0 -9.74088,4.34442 -9.74088,9.74088 v 24.11706 c 0,2.45632 -1.97747,4.43378 -4.43378,4.43378 H 431.3787 c -2.45632,0 -4.43379,-1.97746 -4.43379,-4.43378 v -24.11706 c 0,-5.39646 -4.34443,-9.74088 -9.74087,-9.74088 z m -34.86563,-5.91172 c -5.9547,0 -10.74857,4.79386 -10.74857,10.74856 0,5.9547 4.79387,10.74854 10.74857,10.74854 5.95469,0 10.74855,-4.79384 10.74855,-10.74854 0,-5.9547 -4.79386,-10.74856 -10.74855,-10.74856 z m -90.62378,31.03646 c -13.06313,0 -23.57963,10.51652 -23.57963,23.57965 v 40.71017 c 0,5.39643 4.34443,9.74088 9.74088,9.74088 5.39644,0 9.74088,-4.34445 9.74088,-9.74088 v -37.01535 c 0,-4.24272 3.41561,-7.65836 7.65834,-7.65836 4.24272,0 7.65835,3.41564 7.65835,7.65836 v 37.01535 c 0,5.39547 4.34288,9.74088 9.73799,9.74088 5.3951,0 9.73799,-4.34541 9.73799,-9.74088 v -37.01535 c 0,-4.24272 3.41562,-7.65836 7.65834,-7.65836 4.24274,0 7.65712,3.41564 7.65836,7.65836 l 0.005,19.88483 c 0.004,15.03561 12.1045,27.1401 27.14011,27.1401 15.0356,0 27.1401,-12.10449 27.1401,-27.1401 v -33.92514 c 0,-5.39644 -4.34443,-9.74088 -9.74088,-9.74088 -5.39644,0 -9.74088,4.34444 -9.74088,9.74088 v 33.52206 c 0,4.24273 -3.41562,7.65835 -7.65834,7.65835 -4.24272,0 -7.65728,-3.41562 -7.65835,-7.65835 l -0.005,-23.17657 c -0.003,-13.06313 -10.51653,-23.57965 -23.57965,-23.57965 -7.38735,0 -14.04468,3.32939 -18.35757,8.64844 -0.54151,0.66787 -1.32573,1.29397 -2.59922,1.29397 -1.27351,0 -2.05771,-0.6261 -2.59923,-1.29397 -4.31291,-5.31905 -10.97022,-8.64844 -18.35759,-8.64844 z" />
    </g>
    <g
       id="g51389"
       transform="matrix(1.1018368,0,0,1.1018368,-54.070438,-321.50606)">
      <path
         id="rect6998-8"
         style="display:inline;fill:#f44d85;fill-opacity:1;stroke-width:1"
         d="m 88.695149,300.71244 100.120961,-8.67779 c 28.06469,-2.43245 41.79309,13.6524 42.43035,34.64823 l 3.39098,111.72287 c 0.59437,19.58289 -15.45881,36.59525 -38.26478,35.92852 L 89.580119,471.21222 c -23.02493,-0.67313 -40.93959,-7.61145 -40.49917,-29.53557 l 2.08247,-103.6654 c 0.3735,-18.59268 14.38781,-35.29286 37.53173,-37.29881 z"
         sodipodi:nodetypes="sssssssss" />
      <path
         id="rect15331"
         style="display:inline;opacity:1;fill:#ffffff"
         d="m 122.12305,298.1582 c -12.88592,-0.001 -23.414119,6.61004 -24.136722,15.44532 1.7072,1.21885 3.681252,2.29534 5.853512,3.21875 -25.367665,3.22719 -38.829369,19.07815 -39.134762,48.58984 0,0 4.014726,-6.56305 6.56836,-10.35742 2.553628,-3.79438 8.248046,-11.39453 8.248046,-11.39453 l -0.779296,7.10742 c 5.500403,-3.7424 12.751436,-7.45815 21.236328,-10.31836 0.758344,-5.22224 -0.482455,-8.58517 -1.94336,-12.69336 1.995234,-0.11238 3.381664,0.14904 4.783204,1.2168 1.40154,1.06775 4.44155,4.81566 5.67773,9.01953 3.02856,-0.72959 7.231,-1.97268 10.47461,-2.42969 2.90134,23.79592 -1.00726,39.03192 -15.67773,49.75586 6.63619,1.25366 9.62229,1.41675 17.47656,-0.48828 0.66656,5.27705 0.37331,7.89428 -0.2793,10.13672 6.32649,-1.96244 12.36631,-5.28894 17.79688,-9.74024 0.26943,9.01406 0.93212,14.03899 2.93359,22.85156 5.82847,0.93955 16.19929,1.37858 25.64258,0.22071 -0.21533,-2.8928 -0.31119,-6.13464 -0.3418,-9.64844 l 4.5293,29.34766 c 0,0 12.65299,1.78063 20.08789,-1.78321 0.49183,-3.20291 2.43164,-5.25781 2.43164,-5.25781 0,0 -1.88277,7.78473 0.33985,11.86328 2.22269,4.07866 10.66406,11.60742 10.66406,11.60742 l 16.1289,-5.91796 1.03321,-3.58204 c 0.76706,2.64913 1.61977,4.80767 4.70508,6.99024 1.44091,1.01932 4.70855,1.99241 7.77539,2.76172 0.31689,-2.05081 0.4846,-4.14227 0.41992,-6.27344 l -0.34961,-11.54297 c -3.46752,-2.74407 -6.63672,-6.47265 -6.63672,-6.47266 l -6.72266,7.38672 c 0,0 -0.18416,-3.63289 -1.19335,-7.55859 -1.0092,-3.92571 -3.88477,-6.74414 -3.88477,-6.74414 0,0 -5.54846,2.04576 -10.63281,2.14453 -1.80273,0.035 -4.51234,0.19756 -7.57813,-0.80273 4.44626,-4.27641 3.41894,-8.70415 0.88867,-11.38868 -2.51574,-2.66913 -16.55818,-6.66623 -25.25,-8.49218 4.729,0.23254 9.52031,0.4426 13.78125,1.19922 1.83115,-8.83214 -1.19726,-20.73633 -1.19726,-20.73633 l -20.70313,-2.00196 c 1.60598,-0.88861 3.09819,-2.31151 3.67774,-4.61718 -7.05662,-32.15517 -25.71792,-52.85008 -55.88086,-52.55469 -1.62715,-1.61771 -2.45085,-3.52671 -2.45117,-5.57813 -9.3e-4,-5.8298 7.28273,-10.15688 17.3789,-10.15625 3.52769,2.2e-4 6.97967,0.59082 9.93946,1.69922 -4.37623,-2.60049 -9.94297,-4.03077 -15.69922,-4.03125 z m -4.43164,39.13086 c -7.33607,3.07029 -14.55786,5.70405 -19.632816,6.55469 7.709416,0.48982 12.596706,3.0842 14.535156,8.5 -5.12456,-3.58325 -9.18751,-5.74445 -15.400391,-6.57422 -4.173764,-0.55744 -8.150971,0.0706 -11.496093,1.75781 -0.436023,6.57041 -1.17865,13.11487 -3.900391,15.40625 -2.721741,2.29137 -9.986328,2.34961 -9.986328,2.34961 0,0 -1.291143,31.42582 3.660156,34.6543 4.951299,3.22848 16.145562,0.64349 22.560547,5.30273 6.21523,4.51416 10.98433,27.6311 5.25195,33.9375 -7.157206,7.87391 -3.3191,9.08048 -7.726559,14.20704 -2.993197,3.48155 -12.050427,12.69207 -17.548829,16.83203 3.656182,0.55176 7.529247,0.87789 11.572266,0.99609 l 48.939452,1.42969 c -1.29662,-2.23859 -2.49133,-4.209 -3.00781,-5.02344 -1.31054,-2.06662 -3.94058,-0.36068 -5.78516,1.21289 l -1.20312,-1.21094 c 3.35386,-3.16581 4.35652,-3.80692 3.00976,-9.50781 l 8.79688,14.58203 35.19922,1.0293 c -3.749,-6.21538 -7.56584,-12.71529 -9.51172,-16.73828 -4.63221,-9.57683 -11.3125,-24.13672 -11.3125,-24.13672 -5.49797,-12.08621 -13.57285,-16.73428 -18.35156,-16.89649 -4.77872,-0.16217 -7.28516,1.36329 -7.28516,1.36329 -1.3124,-2.79376 -3.4537,-9.18162 -3.71094,-21.86524 -3.18453,1.70714 -6.9667,1.98633 -6.9668,1.98633 0,0 -0.2789,-3.32991 -2.16601,-7.3457 -7.62606,0.84021 -12.43925,0.25943 -18.437501,-2.65821 6.471971,-4.0463 14.612601,-12.1706 17.677731,-19.86718 3.06513,-7.69658 3.56959,-19.18081 2.22657,-30.27735 z m -25.556644,22.6836 11.746094,0.97851 c 0,0 -7.946559,2.2918 -10.033204,2.08203 -2.086645,-0.20977 -3.060547,-1.10351 -3.060547,-1.10351 z"
         sodipodi:nodetypes="ccccsccccsccccccccccccscccscccccscscsccccccsscccccscscsssscccscccccscscccccscccscc" />
    </g>
  </g>
</svg>
